<svg width="42" height="42" viewBox="0 0 42 42" fill="none" xmlns="http://www.w3.org/2000/svg">
<path d="M17.6877 19.6587C17.6877 19.6587 17.6816 19.6587 17.6775 19.6587C17.6775 17.3004 17.6775 14.9401 17.6775 12.5818C17.6775 12.0393 17.6047 11.9705 17.0541 11.9684C16.2929 11.9664 15.5338 11.9482 14.7727 11.9684C13.1249 12.015 11.9812 13.1526 11.9671 14.8126C11.9407 18.1223 11.9529 21.432 11.9488 24.7417C11.9468 25.9684 11.9934 27.1971 11.7768 28.4178C11.1189 32.1121 8.06221 35.1404 4.34968 35.6444C3.1837 35.8023 1.98735 35.7618 0.805166 35.7882C0.175614 35.8023 0.0541576 35.8509 0.0460605 36.4582C0.0237934 37.9906 0.0359351 39.5209 0.042008 41.0533C0.042008 41.3225 0.161448 41.5452 0.467114 41.5513C2.77075 41.5897 5.08854 41.6525 7.3031 40.8792C11.3314 39.4744 14.4873 37.0351 16.297 33.0655C17.0257 31.4663 17.4265 29.7801 17.6168 28.0331C17.8233 26.1344 17.718 24.2376 17.6897 22.3368C17.6755 21.4421 17.6877 20.5473 17.6877 19.6546V19.6587Z" fill="white"/>
<path d="M41.2353 13.114C40.7333 13.11 40.2313 13.11 39.7293 13.112C39.5188 13.112 39.4297 13.2294 39.4297 13.4298C39.4297 13.9318 39.4297 14.4338 39.4297 14.9359C39.4297 15.1606 39.537 15.2577 39.7596 15.2517C40.0046 15.2456 40.2495 15.2516 40.4965 15.2496C40.7536 15.2496 41.0086 15.2496 41.2657 15.2496C41.4742 15.2496 41.5694 15.1504 41.5694 14.9419C41.5653 14.4399 41.5653 13.9379 41.5694 13.4359C41.5714 13.2031 41.4438 13.114 41.2353 13.114Z" fill="white"/>
<path d="M41.5697 18.2983C41.5697 18.0635 41.5636 17.8307 41.5717 17.5959C41.5818 17.3611 41.4948 17.2417 41.2458 17.2457C40.7559 17.2518 40.264 17.2518 39.7741 17.2457C39.5555 17.2437 39.4502 17.3186 39.4523 17.5534C39.4563 18.0534 39.4259 18.5554 39.4523 19.0554C39.4583 19.1667 39.6425 19.355 39.7519 19.3591C40.2741 19.3833 40.8004 19.3712 41.3227 19.3368C41.4097 19.3307 41.5433 19.1688 41.5575 19.0655C41.5919 18.8145 41.5697 18.5534 41.5697 18.2983Z" fill="white"/>
<path d="M37.5688 15.7135C37.0769 15.7196 36.585 15.7196 36.0931 15.7135C35.8846 15.7115 35.7813 15.7945 35.7833 16.009C35.7854 16.5232 35.7833 17.0374 35.7793 17.5515C35.7793 17.7681 35.8967 17.8532 36.0951 17.8511C36.5991 17.8471 37.1012 17.839 37.6052 17.8329C37.7955 17.8309 37.8866 17.7418 37.8805 17.5414C37.8724 17.2843 37.8785 17.0272 37.8785 16.7702H37.8967C37.8967 16.5232 37.8927 16.2783 37.8967 16.0313C37.9007 15.8066 37.7955 15.7074 37.5708 15.7094L37.5688 15.7135Z" fill="white"/>
<path d="M41.533 22.3045C41.533 21.4502 41.5189 21.436 40.6585 21.4421C40.3893 21.4421 40.1221 21.4421 39.8529 21.436C39.5513 21.43 39.4116 21.5717 39.4136 21.8733C39.4177 22.3753 39.4136 22.8773 39.4136 23.4178H37.8731C37.8731 23.2862 37.8731 23.1668 37.8731 23.0474C37.8731 22.1648 37.8691 21.2802 37.8731 20.3976C37.8731 20.1203 37.7679 19.9887 37.4744 19.9947C37.0715 20.0028 36.6687 19.9786 36.2679 19.9705C35.8205 19.9603 35.7881 19.9887 35.7861 20.434C35.78 22.4583 35.774 24.4806 35.774 26.5048C35.774 27.5959 35.6849 28.6789 35.278 29.6991C33.8813 33.2052 31.357 35.3064 27.5554 35.7153C26.5938 35.8185 25.6141 35.774 24.6424 35.7801C24.0007 35.7841 23.8671 35.8995 23.8692 36.5331C23.8712 37.9744 23.8752 39.4177 23.8793 40.859C23.8813 41.4602 23.9603 41.5452 24.5513 41.5533C26.6222 41.5837 28.7092 41.6384 30.7031 41.0007C36.4238 39.1687 40.1039 35.4177 41.28 29.4279C41.4662 28.4826 41.4845 27.4988 41.5108 26.5311C41.5492 25.1243 41.5249 23.7134 41.529 22.3045H41.533Z" fill="white"/>
<path d="M24.3134 29.6182C25.3073 29.602 26.3093 29.6546 27.2891 29.5251C28.6474 29.3469 29.5947 28.2234 29.6109 26.857C29.6393 24.7113 29.619 22.5636 29.619 20.4178C29.6352 20.4178 29.6514 20.4178 29.6696 20.4178C29.6696 18.3611 29.5927 16.3004 29.6858 14.2478C29.8619 10.3936 32.4874 7.18712 36.1979 6.12235C37.3983 5.77822 38.623 5.76203 39.8538 5.78227C40.2222 5.78834 40.5926 5.79441 40.9611 5.78429C41.372 5.77417 41.5602 5.59401 41.5623 5.18308C41.5683 3.6507 41.5684 2.12034 41.5603 0.587964C41.5582 0.185132 41.4145 0.0130692 41.0623 0.0130692C39.0846 0.00699636 37.0906 -0.10029 35.1595 0.421975C29.4247 1.9746 25.7952 5.65474 24.2567 11.3895C23.9551 12.517 23.8599 13.677 23.8579 14.8429C23.8498 19.4826 23.8478 24.1222 23.8438 28.7619C23.8438 28.9178 23.8458 29.0757 23.8741 29.2295C23.9166 29.4643 24.0664 29.6202 24.3114 29.6161L24.3134 29.6182ZM26.0786 11.5373C26.0786 11.3349 26.1676 11.2681 26.3579 11.2701C26.783 11.2762 27.2061 11.2762 27.6312 11.2701C27.8478 11.266 27.9206 11.3713 27.9125 11.5737C27.9045 11.7762 27.9125 11.9786 27.9125 12.181C27.9125 12.4037 27.9328 12.6264 27.9024 12.845C27.8903 12.9341 27.7749 13.0757 27.7 13.0798C27.2486 13.1081 26.7931 13.1203 26.3417 13.098C26.2466 13.094 26.0867 12.932 26.0826 12.8349C26.0583 12.4037 26.0867 11.9685 26.0826 11.5353L26.0786 11.5373Z" fill="white"/>
<path d="M0.829963 29.6343C1.5 29.6222 2.17206 29.6242 2.8421 29.6201C4.56274 29.61 5.79349 28.3772 5.79754 26.6485C5.80564 22.6789 5.80565 18.7093 5.81577 14.7396C5.81982 13.3206 6.10523 11.9583 6.78337 10.7073C8.49591 7.5494 11.17 5.92188 14.757 5.80042C15.5283 5.7741 16.2995 5.80042 17.0708 5.79637C17.5951 5.79637 17.7145 5.68504 17.7125 5.17492C17.7125 3.62027 17.7064 2.06562 17.6983 0.510976C17.6963 0.0879011 17.6254 0.0271699 17.2104 0.0210971C15.4088 -0.0112914 13.6052 -0.0396294 11.8319 0.326765C7.58093 1.2053 4.34816 3.5474 2.10931 7.24778C0.71458 9.55344 0.0384707 12.0797 0.0222765 14.7761C0.0101308 17.023 0.0202502 19.272 0.0202502 21.519C0.0141774 21.519 0.00607284 21.519 0 21.519C0 23.9562 0 26.3934 0 28.8327C0 29.5331 0.129559 29.6464 0.827936 29.6343H0.829963ZM2.35829 11.5372C2.35829 11.3348 2.44736 11.268 2.63764 11.27C3.06274 11.2761 3.48581 11.2761 3.91091 11.27C4.12751 11.266 4.20039 11.3712 4.19229 11.5737C4.18419 11.7761 4.19229 11.9785 4.19229 12.1809C4.19229 12.4036 4.21254 12.6263 4.18217 12.8449C4.17003 12.934 4.05464 13.0757 3.97974 13.0797C3.52833 13.1081 3.07286 13.1202 2.62145 13.098C2.5263 13.0939 2.36639 12.932 2.36234 12.8348C2.33805 12.4036 2.36639 11.9684 2.36234 11.5352L2.35829 11.5372Z" fill="white"/>
</svg>
