<svg version="1.1" viewBox="0 0 452.22 118.46" xmlns="http://www.w3.org/2000/svg" xmlns:xlink="http://www.w3.org/1999/xlink"><g transform="translate(-48.019 -48.217)"><path transform="matrix(1.3333 0 0 -1.3333 433.05 165.35)" d="m0 0h5.302v14.801l12.859-14.801h7.615l-15.06 16.044 13.367 12.768h-7.219l-11.562-11.695v24.136h-5.302z" fill="#0c2f59"/><path transform="matrix(1.3333 0 0 -1.3333 278.51 165.35)" d="m0 0h5.076v4.061h0.113c1.41-2.143 4.681-4.738 9.814-4.738 8.686 0 12.352 7.671 12.352 15.567 0 7.727-4.061 14.552-12.409 14.552-5.019 0-7.896-1.974-9.531-4.625h-0.113v16.369h-5.302zm21.715 14.495c0.112-4.512-2.256-10.885-7.953-10.885-5.979 0-8.46 5.922-8.46 10.716 0 5.358 2.763 10.829 8.516 10.829s8.009-5.471 7.897-10.66" fill="#0c2f59"/><path transform="matrix(1.3333 0 0 -1.3333 0 214.68)" d="m103.03 37.028h5.302v28.765h-5.302z" fill="#0c2f59"/><path transform="matrix(1.3333 0 0 -1.3333 0 214.68)" d="m103.03 73.067h5.302v5.302h-5.302z" fill="#0c2f59"/><path transform="matrix(1.3333 0 0 -1.3333 428.6 66.142)" d="m0 0h-7.614v9.835l-5.302-1.692v-8.143h-6.486v-4.287h6.486v-16.807c0-5.753 3.384-8.348 8.855-8.348 1.692 0 3.328 0.451 4.512 0.79v4.512c-0.789-0.508-1.974-1.015-3.609-1.015-2.426 0-4.456 1.805-4.456 5.132v15.736h7.614z" fill="#0c2f59"/><path transform="matrix(1.3333 0 0 -1.3333 499.63 66.142)" d="m0 0h-7.614v9.835l-5.302-1.692v-8.143h-6.486v-4.287h6.486v-16.807c0-5.753 3.384-8.348 8.855-8.348 1.692 0 3.328 0.451 4.512 0.79v4.512c-0.789-0.508-1.974-1.015-3.61-1.015-2.425 0-4.455 1.805-4.455 5.132v15.736h7.614z" fill="#0c2f59"/><path transform="matrix(1.3333 0 0 -1.3333 157.37 165.35)" d="m0 0h5.302v13.311c0 6.994 2.707 11.844 8.742 11.844 4.625-0.282 6.091-3.553 6.091-10.265v-14.89h5.302v17.09c0 7.727-3.328 12.352-10.773 12.352-4.004 0-7.839-1.974-9.419-5.246h-0.112v4.569h-5.133zm34.461 0h5.302v13.311c0 6.994 2.707 11.844 8.742 11.844 4.625-0.282 6.091-3.553 6.091-10.265v-14.89h5.302v17.09c0 7.727-3.328 12.352-10.773 12.352-4.004 0-7.839-1.974-9.419-5.246h-0.112v4.569h-5.133zm32.036 0.902c2.425-1.297 5.189-1.579 7.896-1.579 5.133 0 10.039 2.82 10.039 8.968 0 9.194-12.464 7.502-12.464 13.367 0 2.369 2.369 3.497 5.076 3.497 1.241 0 4.399-0.733 5.584-1.466l0.451 4.625c-2.087 0.62-4.117 1.128-6.599 1.128-5.697 0-10.152-2.877-10.152-8.855 0-8.066 12.464-7.615 12.464-12.86 0-3.102-2.989-4.117-5.414-4.117-1.523 0-4.512 0.677-6.599 2.03zm58.826-0.902h5.302v13.085c0 7.22 3.102 11.732 7.839 11.732 0.903 0 1.975-0.113 2.933-0.508v4.738c-1.128 0.226-1.917 0.395-3.497 0.395-3.045 0-6.091-2.143-7.501-5.133h-0.113v4.456h-4.963zm47.377 28.765h-5.302v-13.311c0-6.994-2.707-11.844-8.742-11.844-4.625 0.282-6.092 3.553-6.092 10.265v14.89h-5.301v-17.09c0-7.727 3.327-12.352 10.772-12.352 4.005 0 7.84 1.974 9.419 5.246h0.113v-4.569h5.133zm27.749-0.451c-1.523 0.62-4.286 1.128-6.43 1.128-8.798 0-14.664-6.317-14.664-15.06 0-8.234 5.978-15.059 14.664-15.059 1.918 0 4.456 0.169 6.656 1.185l-0.395 4.737c-1.636-1.071-3.892-1.635-5.697-1.635-6.824 0-9.588 5.64-9.588 10.772 0 5.471 3.328 10.773 9.25 10.773 1.692 0 3.722-0.395 5.753-1.241z" fill="#0c2f59"/><path transform="matrix(1.3333 0 0 -1.3333 49.063 50.289)" d="m0 0v-40.97h41.749v41.747h-41.749z" fill="#0c2f59" stroke="#fff" stroke-width="1.554"/><path transform="matrix(1.3333 0 0 -1.3333 49.061 111.03)" d="m0 0v-40.955h41.737v41.737h-41.737z" fill="#f68712" stroke="#fff" stroke-width="1.564"/><path transform="matrix(1.3333 0 0 -1.3333 0 214.68)" d="m291.13 118.57h5.302v5.302h-5.302z" fill="#0c2f59"/><path transform="matrix(1.3333 0 0 -1.3333 0 214.68)" d="m172.02 118.57h5.302v5.302h-5.302z" fill="#0c2f59"/><path transform="matrix(1.3333 0 0 -1.3333 0 214.68)" d="m331.98 115.92h5.302v5.302h-5.302z" fill="#0c2f59"/><path transform="matrix(1.3333 0 0 -1.3333 0 214.68)" d="m341.18 115.92h5.302v5.302h-5.302z" fill="#0c2f59"/><path transform="matrix(1.3333 0 0 -1.3333 170.48 66.288)" d="m0 0h-5.302v-13.311c0-6.994-2.707-11.844-8.742-11.844-4.625 0.282-6.091 3.553-6.091 10.265v14.89h-5.302v-17.09c0-7.727 3.328-12.352 10.773-12.352 4.004 0 7.839 1.974 9.419 5.246h0.112v-4.569h5.133zm9.024-28.765h5.302v13.311c0 6.994 2.707 11.844 8.742 11.844 4.625-0.282 6.091-3.553 6.091-10.265v-14.89h5.302v17.09c0 7.727-3.328 12.352-10.773 12.352-4.004 0-7.84-1.974-9.419-5.246h-0.113v4.569h-5.132zm35.138 0h5.302v28.765h-5.302zm38.071 28.765h-5.302l-7.953-23.463h-0.112l-7.784 23.463h-5.809l10.321-28.765h6.317zm27.185-22.279c-1.297-1.071-5.358-2.876-8.855-2.876-5.019 0-9.475 3.891-9.475 9.588h20.53c0 9.25-3.102 16.244-12.69 16.244-8.122 0-13.48-6.035-13.48-14.552 0-9.363 4.681-15.567 14.89-15.567 4.738 0 7.05 1.128 9.08 1.861zm-18.33 10.66c0.395 3.723 2.538 8.009 7.727 8.009 4.568 0 7.163-3.609 7.163-8.009zm27.637-17.146h5.301v13.085c0 7.22 3.103 11.732 7.84 11.732 0.903 0 1.974-0.113 2.933-0.508v4.738c-1.128 0.226-1.917 0.395-3.497 0.395-3.045 0-6.091-2.143-7.501-5.133h-0.113v4.456h-4.963zm19.514 0.902c2.426-1.297 5.189-1.579 7.896-1.579 5.133 0 10.04 2.82 10.04 8.968 0 9.194-12.465 7.502-12.465 13.367 0 2.369 2.369 3.497 5.076 3.497 1.241 0 4.4-0.733 5.584-1.466l0.451 4.625c-2.087 0.62-4.117 1.128-6.599 1.128-5.696 0-10.152-2.877-10.152-8.855 0-8.066 12.465-7.615 12.465-12.86 0-3.102-2.989-4.117-5.415-4.117-1.523 0-4.512 0.677-6.599 2.03zm25.042-0.902h5.302v28.765h-5.302zm38.578 22.222c2.144 1.805 5.359 2.933 8.348 2.933 5.302 0 7.107-2.538 7.107-7.501-2.087 0.113-3.554 0.113-5.641 0.113-5.471 0-13.367-2.256-13.367-9.476 0-6.261 4.343-8.968 10.547-8.968 4.851 0 7.671 2.651 8.912 4.4h0.113v-3.723h4.963c-0.113 0.846-0.226 2.369-0.226 5.64v11.901c0 7.84-3.327 11.901-11.562 11.901-3.666 0-6.825-1.128-9.475-2.707zm15.455-11.054c0-4.287-2.764-7.558-8.009-7.558-2.426 0-5.359 1.635-5.359 4.681 0 5.076 7.107 5.527 9.983 5.527 1.128 0 2.257-0.112 3.385-0.112z" fill="#0c2f59"/></g></svg>
